<?xml version="1.0" encoding="utf-8"?>
<!-- Generator: Adobe Illustrator 22.0.0, SVG Export Plug-In . SVG Version: 6.00 Build 0)  -->
<svg version="1.1" id="Layer_1" xmlns="http://www.w3.org/2000/svg" xmlns:xlink="http://www.w3.org/1999/xlink" x="0px" y="0px"
	 viewBox="0 0 29 29" style="enable-background:new 0 0 29 29;" xml:space="preserve">
<style type="text/css">
	.st0{display:none;fill:#FF6D46;}
	.st1{fill:#FF6D46;}
	.st2{fill:#FFFFFF;}
</style>
<title>arrow_circle</title>
<path class="st0" d="M14.5,0C6.5,0,0,6.5,0,14.5S6.5,29,14.5,29S29,22.5,29,14.5S22.5,0,14.5,0z M14.5,28.1c-3.8,0-7.2-1.5-9.6-4
	c-2.5-2.5-4-5.9-4-9.6C0.9,7,7,0.9,14.5,0.9C22,0.9,28.1,7,28.1,14.5S22,28.1,14.5,28.1z M15.3,10.6c-0.2-0.1-0.4-0.1-0.6,0
	c-0.2,0.2-0.2,0.4,0,0.6l2.7,2.7H9.8c-0.2,0-0.3,0.2-0.4,0.4c0,0.2,0.1,0.5,0.4,0.5h7.6l-2.7,2.7c-0.1,0.2-0.1,0.4,0,0.6
	c0.2,0.2,0.4,0.2,0.6,0.1l3.5-3.5c0,0,0,0,0,0c0.2-0.2,0.2-0.5,0-0.6L15.3,10.6z M18.8,14l-3.5-3.4c-0.2-0.1-0.4-0.1-0.6,0
	c-0.2,0.2-0.2,0.4,0,0.6l2.7,2.7H9.8c-0.2,0-0.3,0.2-0.4,0.4c0,0.2,0.1,0.5,0.4,0.5h7.6l-2.7,2.7c-0.1,0.2-0.1,0.4,0,0.6
	c0.2,0.2,0.4,0.2,0.6,0.1l3.5-3.5c0,0,0,0,0,0C19,14.4,19,14.2,18.8,14z M18.8,14l-3.5-3.4c-0.2-0.1-0.4-0.1-0.6,0
	c-0.2,0.2-0.2,0.4,0,0.6l2.7,2.7H9.8c-0.2,0-0.3,0.2-0.4,0.4c0,0.2,0.1,0.5,0.4,0.5h7.6l-2.7,2.7c-0.1,0.2-0.1,0.4,0,0.6
	c0.2,0.2,0.4,0.2,0.6,0.1l3.5-3.5c0,0,0,0,0,0C19,14.4,19,14.2,18.8,14z"/>
<path class="st1" d="M14.5,0.9C7,0.9,0.9,7,0.9,14.5c0,3.8,1.5,7.2,4,9.6c2.5,2.5,5.9,4,9.6,4c7.5,0,13.6-6.1,13.6-13.6
	S22,0.9,14.5,0.9z"/>
<path class="st0" d="M18.8,14.6C18.8,14.6,18.8,14.6,18.8,14.6l-3.5,3.5c-0.2,0.2-0.5,0.1-0.6-0.1c-0.1-0.2-0.1-0.4,0-0.6l2.7-2.7
	H9.8c-0.2,0-0.4-0.3-0.4-0.5c0-0.2,0.2-0.3,0.4-0.4h7.6l-2.7-2.7c-0.2-0.2-0.1-0.5,0-0.6c0.2-0.1,0.4-0.1,0.6,0l3.5,3.4
	C19,14.2,19,14.4,18.8,14.6z"/>
<path class="st2" d="M18.8,14.6C18.8,14.6,18.8,14.6,18.8,14.6l-3.5,3.5c-0.2,0.2-0.5,0.1-0.6-0.1c-0.1-0.2-0.1-0.4,0-0.6l2.7-2.7
	H9.8c-0.2,0-0.4-0.3-0.4-0.5c0-0.2,0.2-0.3,0.4-0.4h7.6l-2.7-2.7c-0.2-0.2-0.1-0.5,0-0.6c0.2-0.1,0.4-0.1,0.6,0l3.5,3.4
	C19,14.2,19,14.4,18.8,14.6z"/>
</svg>
