<svg id="Capa_1" data-name="Capa 1" xmlns="http://www.w3.org/2000/svg" viewBox="0 0 120 90"><defs><style>.cls-1{fill:#fff;}.cls-2{opacity:0;}.cls-3{fill:#dc0000;}.cls-4{fill:#928fca;}.cls-5{fill:#87dcd2;}.cls-6{fill:#e06b41;}</style></defs><title>ico_SEL</title><path class="cls-1" d="M48.23,31.6l.29,0a1.28,1.28,0,0,0,.31-.06.64.64,0,0,0,.25-.16.37.37,0,0,0,.11-.28c0-.18-.12-.32-.36-.42a7.28,7.28,0,0,0-.89-.29L46.77,30a4.35,4.35,0,0,1-1.17-.57,3.12,3.12,0,0,1-.89-1A2.88,2.88,0,0,1,44.34,27a2.55,2.55,0,0,1,.35-1.36,3,3,0,0,1,.89-.93,3.86,3.86,0,0,1,1.23-.54A5.63,5.63,0,0,1,48.19,24a8.24,8.24,0,0,1,2.06.27,6.51,6.51,0,0,1,1.9.82L50.6,27.24a4.19,4.19,0,0,0-1.13-.62,3.72,3.72,0,0,0-1.28-.23l-.27,0a1.57,1.57,0,0,0-.3.07.62.62,0,0,0-.24.15.36.36,0,0,0-.1.27.34.34,0,0,0,.19.29,1.85,1.85,0,0,0,.44.2l.49.13.35.08A8.86,8.86,0,0,1,50,28a4.09,4.09,0,0,1,1.08.64,3,3,0,0,1,.75.93,2.81,2.81,0,0,1,.28,1.31,2.93,2.93,0,0,1-.33,1.44,2.83,2.83,0,0,1-.87,1,3.69,3.69,0,0,1-1.24.54,6,6,0,0,1-1.44.17,7.78,7.78,0,0,1-1-.07,7.49,7.49,0,0,1-1.07-.22,8.44,8.44,0,0,1-1-.36,4.26,4.26,0,0,1-.9-.51l1.55-2.15a4.7,4.7,0,0,0,1.15.67A3.55,3.55,0,0,0,48.23,31.6Z"/><path class="cls-1" d="M58.29,24a5.4,5.4,0,0,1,2,.37,4.7,4.7,0,0,1,1.59,1A4.78,4.78,0,0,1,63,27a5.5,5.5,0,0,1,0,4,4.7,4.7,0,0,1-2.64,2.63,5.6,5.6,0,0,1-4,0A4.71,4.71,0,0,1,53.64,31a5.5,5.5,0,0,1,0-4,4.8,4.8,0,0,1,1.05-1.59,4.7,4.7,0,0,1,1.59-1A5.36,5.36,0,0,1,58.29,24Zm0,7.47a2,2,0,0,0,.91-.2,1.92,1.92,0,0,0,.66-.54,2.32,2.32,0,0,0,.4-.78,3.47,3.47,0,0,0,0-1.91,2.33,2.33,0,0,0-.4-.79,1.93,1.93,0,0,0-.66-.54,2.22,2.22,0,0,0-1.83,0,1.88,1.88,0,0,0-.66.54,2.42,2.42,0,0,0-.39.79,3.47,3.47,0,0,0,0,1.91,2.4,2.4,0,0,0,.39.78,1.87,1.87,0,0,0,.66.54A2,2,0,0,0,58.29,31.47Z"/><path class="cls-1" d="M70.77,32.47h-3l-.46,1.36H64l4.07-9.65h2.3l4.07,9.65H71.24Zm-1.52-5.05-.23.87-.22.83-.18.67a3.35,3.35,0,0,1-.12.39H70a3.43,3.43,0,0,1-.12-.39l-.18-.67-.21-.83-.22-.87Z"/><path class="cls-1" d="M83,26.69H80.35v7.13H77.42V26.69H74.79V24.17H83Z"/><rect class="cls-1" x="43" y="41.01" width="40" height="3"/><rect class="cls-1" x="43" y="51.01" width="40" height="3"/><g class="cls-2"><rect class="cls-3" width="120" height="90"/></g><rect class="cls-4" x="21.71" y="5" width="60" height="80" rx="3.15" ry="3.15" transform="translate(-7.36 10.21) rotate(-10.54)"/><rect class="cls-5" x="35" y="5" width="60" height="80" rx="3.15" ry="3.15"/><path class="cls-1" d="M50.23,32.6l.29,0a1.28,1.28,0,0,0,.31-.06.64.64,0,0,0,.25-.16.37.37,0,0,0,.11-.28c0-.18-.12-.32-.36-.42a7.28,7.28,0,0,0-.89-.29L48.77,31a4.35,4.35,0,0,1-1.17-.57,3.12,3.12,0,0,1-.89-1A2.88,2.88,0,0,1,46.34,28a2.55,2.55,0,0,1,.35-1.36,3,3,0,0,1,.89-.93,3.86,3.86,0,0,1,1.23-.54A5.63,5.63,0,0,1,50.19,25a8.24,8.24,0,0,1,2.06.27,6.51,6.51,0,0,1,1.9.82L52.6,28.24a4.19,4.19,0,0,0-1.13-.62,3.72,3.72,0,0,0-1.28-.23l-.27,0a1.57,1.57,0,0,0-.3.07.62.62,0,0,0-.24.15.36.36,0,0,0-.1.27.34.34,0,0,0,.19.29,1.85,1.85,0,0,0,.44.2l.49.13.35.08A8.86,8.86,0,0,1,52,29a4.09,4.09,0,0,1,1.08.64,3,3,0,0,1,.75.93,2.81,2.81,0,0,1,.28,1.31,2.93,2.93,0,0,1-.33,1.44,2.83,2.83,0,0,1-.87,1,3.69,3.69,0,0,1-1.24.54,6,6,0,0,1-1.44.17,7.78,7.78,0,0,1-1-.07,7.49,7.49,0,0,1-1.07-.22,8.44,8.44,0,0,1-1-.36,4.26,4.26,0,0,1-.9-.51l1.55-2.15a4.7,4.7,0,0,0,1.15.67A3.55,3.55,0,0,0,50.23,32.6Z"/><path class="cls-1" d="M60.29,25a5.4,5.4,0,0,1,2,.37,4.7,4.7,0,0,1,1.59,1A4.78,4.78,0,0,1,65,28a5.5,5.5,0,0,1,0,4,4.7,4.7,0,0,1-2.64,2.63,5.6,5.6,0,0,1-4,0A4.71,4.71,0,0,1,55.64,32a5.5,5.5,0,0,1,0-4,4.8,4.8,0,0,1,1.05-1.59,4.7,4.7,0,0,1,1.59-1A5.36,5.36,0,0,1,60.29,25Zm0,7.47a2,2,0,0,0,.91-.2,1.92,1.92,0,0,0,.66-.54,2.32,2.32,0,0,0,.4-.78,3.47,3.47,0,0,0,0-1.91,2.33,2.33,0,0,0-.4-.79,1.93,1.93,0,0,0-.66-.54,2.22,2.22,0,0,0-1.83,0,1.88,1.88,0,0,0-.66.54,2.42,2.42,0,0,0-.39.79,3.47,3.47,0,0,0,0,1.91,2.4,2.4,0,0,0,.39.78,1.87,1.87,0,0,0,.66.54A2,2,0,0,0,60.29,32.47Z"/><path class="cls-1" d="M72.77,33.47h-3l-.46,1.36H66l4.07-9.65h2.3l4.07,9.65H73.24Zm-1.52-5.05-.23.87-.22.83-.18.67a3.35,3.35,0,0,1-.12.39H72a3.43,3.43,0,0,1-.12-.39l-.18-.67-.21-.83-.22-.87Z"/><path class="cls-1" d="M85,27.69H82.35v7.13H79.42V27.69H76.79V25.17H85Z"/><rect class="cls-1" x="45" y="42.01" width="40" height="3"/><rect class="cls-1" x="45" y="52.01" width="40" height="3"/><rect class="cls-1" x="45" y="62.01" width="40" height="3"/><circle class="cls-6" cx="100" cy="70" r="20"/><path class="cls-1" d="M100.1,72.58a3.73,3.73,0,0,1-.25,1.36A3,3,0,0,1,99,75.1a4.15,4.15,0,0,1-1.42.81,6.31,6.31,0,0,1-2.1.31,8.24,8.24,0,0,1-1.31-.1,10.16,10.16,0,0,1-1.28-.29,8,8,0,0,1-1.17-.45,5.76,5.76,0,0,1-1-.58L92.3,72.7a5.62,5.62,0,0,0,1.46.79,5.06,5.06,0,0,0,1.77.3,2.89,2.89,0,0,0,1.42-.29.89.89,0,0,0,.51-.8,1,1,0,0,0-.11-.46,1.11,1.11,0,0,0-.39-.4,3.75,3.75,0,0,0-.81-.38,13.23,13.23,0,0,0-1.32-.38,6.44,6.44,0,0,1-2.92-1.37,3.11,3.11,0,0,1-1-2.38A3.17,3.17,0,0,1,91.24,66a3.22,3.22,0,0,1,.85-1.12,4.22,4.22,0,0,1,1.41-.77,6.11,6.11,0,0,1,2-.29,8.8,8.8,0,0,1,2.5.36,7.94,7.94,0,0,1,2.17,1l-1.51,2.09a6.67,6.67,0,0,0-1.52-.75,5,5,0,0,0-1.64-.27,2.52,2.52,0,0,0-1.43.32.89.89,0,0,0-.45.72A.8.8,0,0,0,94,68a3.12,3.12,0,0,0,.73.34q.47.17,1.26.36a6.41,6.41,0,0,1,3.16,1.54A3.26,3.26,0,0,1,100.1,72.58Z"/><path class="cls-1" d="M102.71,77.14l-1.56-.6L106.4,62.9l1.56.6Z"/></svg>