<svg id="Capa_1" data-name="Capa 1" xmlns="http://www.w3.org/2000/svg" viewBox="0 0 120 90"><defs><style>.cls-1{opacity:0;}.cls-2{fill:red;}.cls-3{fill:#9492c8;}.cls-4{fill:#2cddd3;}.cls-5{fill:#fff;}.cls-6{fill:#ff6947;}</style></defs><title>ico_</title><g class="cls-1"><rect class="cls-2" width="120" height="90"/></g><path class="cls-3" d="M95,35H25L32.66,8.26C33.46,5.86,35.4,5,38,5H80.26c2.61,0,5.28.86,6.08,3.26Z"/><path class="cls-4" d="M95,35H25l-8.26,7.69A6.26,6.26,0,0,0,15,47V65h90V47a6.26,6.26,0,0,0-1.74-4.35Z"/><rect class="cls-3" x="85" y="75" width="10" height="10"/><rect class="cls-3" x="25" y="75" width="10" height="10"/><path class="cls-4" d="M15,65h90a0,0,0,0,1,0,0v4a6,6,0,0,1-6,6H21a6,6,0,0,1-6-6V65A0,0,0,0,1,15,65Z"/><path class="cls-5" d="M15,50.19H29.76A5.24,5.24,0,0,1,35,55.43V59a0,0,0,0,1,0,0H15a0,0,0,0,1,0,0V50.19A0,0,0,0,1,15,50.19Z"/><path class="cls-5" d="M29.76,52.19A3.24,3.24,0,0,1,33,55.43V57H17V52.19H29.76m0-2H15V59H35V55.43a5.25,5.25,0,0,0-5.24-5.24Z"/><path class="cls-5" d="M105,59H85V54.92C85,52.31,87.81,50,91,50h14Z"/><path class="cls-5" d="M103,52v5H87V54.92C87,53.57,88.75,52,91,52h12m2-2H91c-3.19,0-6,2.31-6,4.92V59h20V50Z"/><path class="cls-3" d="M39,50H81a0,0,0,0,1,0,0v2.75A6.25,6.25,0,0,1,74.75,59H45.25A6.25,6.25,0,0,1,39,52.75V50a0,0,0,0,1,0,0Z"/><rect class="cls-4" x="15" y="25" width="10" height="10" rx="3" ry="3"/><rect class="cls-4" x="15" y="46.23" width="2" height="14"/><rect class="cls-4" x="103" y="46.23" width="2" height="14"/><circle class="cls-6" cx="100" cy="20" r="20"/><path class="cls-5" d="M97.52,27.8l-5-5a1.5,1.5,0,1,1,2.12-2.12l2.7,2.7,7.9-9.18a1.5,1.5,0,0,1,2.28,2Z"/><rect class="cls-3" x="17" y="63" width="86" height="2"/></svg>