<svg id="Capa_1" data-name="Capa 1" xmlns="http://www.w3.org/2000/svg" viewBox="0 0 120 90"><defs><style>.cls-1{opacity:0;}.cls-2{fill:red;}.cls-3{fill:#9492c8;}.cls-4{fill:#2cddd3;}.cls-5{fill:#fff;}.cls-6{fill:#ff6947;}</style></defs><title>ico_</title><g class="cls-1"><rect class="cls-2" width="120" height="90"/></g><path class="cls-3" d="M18,5h84a3,3,0,0,1,3,3V75a0,0,0,0,1,0,0H15a0,0,0,0,1,0,0V8A3,3,0,0,1,18,5Z"/><rect class="cls-4" x="25" y="15" width="70" height="50"/><path class="cls-3" d="M5,75H115a0,0,0,0,1,0,0v4a6,6,0,0,1-6,6H11a6,6,0,0,1-6-6V75A0,0,0,0,1,5,75Z"/><rect class="cls-5" x="20" y="73" width="80" height="2"/><rect class="cls-6" x="42" y="45" width="10" height="8"/><rect class="cls-3" x="55" y="35" width="10" height="18"/><rect class="cls-6" x="68" y="25" width="10" height="28"/><rect class="cls-3" x="33" y="57" width="55" height="2"/></svg>