<svg id="Capa_1" data-name="Capa 1" xmlns="http://www.w3.org/2000/svg" viewBox="0 0 120 90"><defs><style>.cls-1{opacity:0;}.cls-2{fill:red;}.cls-3{fill:#9492c8;}.cls-4{fill:#2cddd3;}.cls-5{fill:#ff6947;}.cls-6{fill:#fff;}</style></defs><title>ico_</title><g class="cls-1"><rect class="cls-2" width="120" height="90"/></g><rect class="cls-3" x="13" y="45" width="99" height="20"/><rect class="cls-4" x="8" y="45" width="43" height="36"/><rect class="cls-4" x="46" y="80" width="5" height="5"/><rect class="cls-4" x="108" y="45" width="4" height="40"/><path class="cls-3" d="M45,47v7H14V47H45m2-2H12V56H47V45Z"/><rect class="cls-4" x="5" y="39" width="110" height="6"/><rect class="cls-3" x="15" width="50" height="35"/><rect class="cls-5" x="18" y="3" width="44" height="29"/><rect class="cls-3" x="35" y="35" width="10" height="4"/><rect class="cls-3" x="80" y="65" width="6" height="20"/><rect class="cls-3" x="76" y="81" width="14" height="2"/><circle class="cls-3" cx="76" cy="88" r="2"/><circle class="cls-3" cx="83" cy="88" r="2"/><circle class="cls-3" cx="90" cy="88" r="2"/><polygon class="cls-6" points="43.93 24.54 33.98 14.59 49.19 9.91 43.93 24.54"/><rect class="cls-6" x="35.08" y="18.47" width="2.48" height="7.45" transform="translate(26.33 -19.18) rotate(45)"/><path class="cls-3" d="M45,56v7H14V56H45m2-2H12V65H47V54Z"/><path class="cls-5" d="M78.46,24H96.54A3.46,3.46,0,0,1,100,27.46V49.07A6.93,6.93,0,0,1,93.07,56H81.93A6.93,6.93,0,0,1,75,49.07V27.46A3.46,3.46,0,0,1,78.46,24Z"/><rect class="cls-5" x="65" y="60" width="35" height="9" rx="3.44" ry="3.44"/><rect class="cls-3" x="89" y="50" width="6" height="14"/></svg>