<svg id="Capa_1" data-name="Capa 1" xmlns="http://www.w3.org/2000/svg" viewBox="0 0 120 90"><defs><style>.cls-1{opacity:0;}.cls-2{fill:red;}.cls-3{fill:#2cddd3;}.cls-4{fill:#9492c8;}.cls-5{fill:#fff;}.cls-6{fill:#ff6947;}</style></defs><title>ico_</title><g class="cls-1"><rect class="cls-2" width="120" height="90"/></g><path class="cls-3" d="M95,80V75c0-10-10-20-22-20H47C35,55,25,65,25,75v5Z"/><circle class="cls-4" cx="46.5" cy="28.5" r="3.5"/><circle class="cls-4" cx="73.5" cy="28.5" r="3.5"/><path class="cls-5" d="M60,65c-5.53,0-9-3.8-9-9.93L55.86,23h8.28L69,55.07C69,61.85,66.12,65,60,65Z"/><path class="cls-4" d="M63.28,24,68,55.15c0,6.2-2.44,8.85-8,8.85-5,0-8-3.31-8-8.85L56.72,24h6.56M65,22H55L50,55c0,6.82,4,11,10,11,7.18,0,10-4.18,10-11L65,22Z"/><path class="cls-5" d="M59.41,44c-5.31,0-10.15-4.12-11.5-9.8A63.55,63.55,0,0,1,46,20.77C46,14,49.79,6,60.48,6S74,15.18,74,20.61c0,4.6-.72,8.21-1.91,13.6C70.84,39.88,66,44,60.59,44Z"/><path class="cls-4" d="M60.48,7C70.36,7,73,15.55,73,20.61c0,4.59-.72,8.08-1.89,13.39s-5.57,9-10.52,9H59.41c-4.86,0-9.28-3.8-10.53-9A62.7,62.7,0,0,1,47,20.77a15.19,15.19,0,0,1,3-9.27c2.35-3,5.89-4.5,10.52-4.5m0-2C48.87,5,45,13.78,45,20.77a65.39,65.39,0,0,0,1.94,13.66C48.33,40.29,53.43,45,59.41,45h1.18c6,0,11.14-4.53,12.47-10.57C74.27,29,75,25.34,75,20.61,75,13.78,71.13,5,60.48,5Z"/><rect class="cls-4" x="53" y="25" width="2" height="3" rx="1" ry="1"/><rect class="cls-4" x="65" y="25" width="2" height="3" rx="1" ry="1"/><path class="cls-4" d="M60.8,32H59.2c-.16,0-.25-.3-.17-.54l.8-2.29c.08-.23.26-.23.34,0l.8,2.29C61.05,31.7,61,32,60.8,32Z"/><path class="cls-6" d="M78.9,24c.07-.72.1-1.45.1-2.18C79,5.45,70.49,0,60,0S41,5.45,41,21.82c0,.73,0,1.46.1,2.18Z"/><path class="cls-4" d="M62,.07V12.62A1.38,1.38,0,0,1,60.62,14H59.38A1.38,1.38,0,0,1,58,12.62V.07c-.68,0-1.34.12-2,.22V12.62A3.38,3.38,0,0,0,59.38,16h1.24A3.38,3.38,0,0,0,64,12.62V.29c-.66-.1-1.32-.17-2-.22Z"/><path class="cls-5" d="M59.38,16h1.24A3.38,3.38,0,0,0,64,12.62V.29c-.66-.1-1.32-.17-2-.22V12.62A1.38,1.38,0,0,1,60.62,14H59.38A1.38,1.38,0,0,1,58,12.62V.07c-.68,0-1.34.12-2,.22V12.62A3.38,3.38,0,0,0,59.38,16Z"/><rect class="cls-6" x="39" y="20" width="42" height="4"/><path class="cls-6" d="M35,58.55V85H45V55.1A22.67,22.67,0,0,0,35,58.55Z"/><rect class="cls-6" x="45" y="75" width="30" height="10"/><path class="cls-6" d="M75,55.1V85H85V58.55A22.67,22.67,0,0,0,75,55.1Z"/><polygon class="cls-4" points="29 80 27 80 27 85 29 85 29 80 29 80"/><polygon class="cls-4" points="93 80 91 80 91 85 93 85 93 80 93 80"/><rect class="cls-5" x="43" y="18" width="34" height="2"/></svg>