<?xml version="1.0" encoding="utf-8"?>
<!-- Generator: Adobe Illustrator 21.1.0, SVG Export Plug-In . SVG Version: 6.00 Build 0)  -->
<svg version="1.1" id="Layer_1" xmlns="http://www.w3.org/2000/svg" xmlns:xlink="http://www.w3.org/1999/xlink" x="0px" y="0px"
	 viewBox="0 0 98 38.5" style="enable-background:new 0 0 98 38.5;" xml:space="preserve">
<style type="text/css">
	.st0{fill:#ED6C46;}
</style>
<g>
	<path class="st0" d="M74.2,3.5l3,0c-1.2,3-2.2,6-3.5,10.1l-3,0C71.9,10.2,73.1,6.8,74.2,3.5"/>
	<polygon class="st0" points="77.7,1.9 74.8,1.9 75.4,0 78.4,0 	"/>
	<path class="st0" d="M62.4,3.5l3,0c-1.2,3-2.2,6-3.5,10.1l-3,0C60.1,10.2,61.3,6.8,62.4,3.5"/>
	<polygon class="st0" points="65.9,1.9 63,1.9 63.6,0 66.6,0 	"/>
	<path class="st0" d="M10.4,11.4l-0.8,2.2l-9.5,0C1.9,9,3.5,4.5,4.9,0l3.2,0C7.7,1.2,4.9,8.8,4,11.4l2.5,0
		C7.8,11.4,9.1,11.4,10.4,11.4"/>
	<path class="st0" d="M92,11.9l-1.1,1.7c-0.7,0.1-1.3,0.2-1.9,0.2c-3.3,0-3-2-2.7-2.9C87.5,6.8,94.3,8.2,95,6c0.3-1-0.8-1.1-1.5-1.1
		c-1.4,0-2.8,0.4-4.3,0.8l0.9-1.9c1.6-0.3,3.1-0.6,4.6-0.6c1.8,0,3.8,0.4,3.1,2.7c-0.5,1.4-1.8,4.6-2.8,7.7l-2.8,0
		c0.4-0.9,0.7-1.8,2-5.2C92.9,9.3,89.5,9.2,89,11c-0.3,1,0.5,1.2,1.3,1.2C90.8,12.2,91.4,12.1,92,11.9"/>
	<path class="st0" d="M80.5,3.5v7.4l5.3-7.4l3,0c-2.6,3.3-5.2,6.7-7.7,10l-3.1,0c0-3.4-0.2-6.7-0.4-10.1L80.5,3.5z"/>
	<path class="st0" d="M72.4,5.5l-2.6,0c-0.3,0.9-1.5,3.9-1.7,4.6c-0.3,0.8-0.3,1.5,0.6,1.5c0.8,0,1.2-0.1,1.7-0.2l-1,2.1
		c-0.8,0.2-1.6,0.3-2.4,0.3c-1.9,0-2.7-0.6-2.1-2.6c0.3-1,1.9-5.3,2.1-5.7l-1.4,0l0.7-2l1.5,0l0.7-1.8l2.8-0.6l-0.8,2.4l2.6,0
		L72.4,5.5z"/>
	<path class="st0" d="M50.1,13.5l0.5-2.2c0.8,0.4,1.7,0.8,2.7,0.8c0.6,0,1.6-0.2,1.9-1c0.4-1.4-3.1-2.5-2.3-4.9
		c0.5-1.7,2-2.8,4.7-2.8c1,0,2,0.1,2.9,0.3l-0.5,2.1c-0.6-0.3-1.2-0.5-2.1-0.5c-0.8,0-1.7,0.1-2,1c-0.4,1.3,3.1,2.5,2.3,5
		c-0.7,2.1-3.2,2.7-4.9,2.7C52.1,14,51.1,13.8,50.1,13.5"/>
	<path class="st0" d="M32.9,8L33,6c0.4,0.1,0.7,0.1,1.1,0.1c1.9,0,3.1-0.8,3.6-2.3c0.4-1.3-0.2-1.6-1.6-1.6c-0.7,0-1.5,0-2.2,0.1
		c-0.5,1.3-2.9,8-3.9,11.4l-3,0c1-2.3,3.8-10.1,4.8-13.5l6.5,0c2.7,0,2.8,2.1,2.4,3.6c-0.9,2.8-3.6,4.4-6.3,4.4
		C33.8,8.1,33.4,8.1,32.9,8"/>
	<path class="st0" d="M16.8,11.9l-1,1.7c-0.7,0.1-1.3,0.2-1.9,0.2c-3.3,0-3-2-2.7-2.9c1.3-4.1,8.1-2.7,8.7-4.9
		c0.3-1-0.8-1.1-1.5-1.1c-1.4,0-2.8,0.4-4.2,0.8L15,3.9c1.6-0.3,3.1-0.6,4.6-0.6c1.8,0,3.8,0.4,3.1,2.6c-0.5,1.4-1.8,4.6-2.8,7.7
		l-2.8,0c0.4-0.9,0.7-1.8,2-5.2c-1.4,0.9-4.7,0.8-5.3,2.6c-0.3,0.9,0.5,1.2,1.3,1.2C15.7,12.2,16.3,12.1,16.8,11.9"/>
	<path class="st0" d="M46.9,3.4c-3.4,0-6.4,2.1-7.5,5.5c-0.7,2.2-0.2,5,3.9,5c4.7,0,6.9-3.5,7.5-5.4C51.8,5.2,50.1,3.4,46.9,3.4
		 M46.3,5.4c1.9,0,2.2,1.4,1.7,3.1c-0.6,1.8-1.9,3.5-4,3.5c-1.8,0-2.2-1.4-1.7-3C42.8,7.1,44.2,5.4,46.3,5.4"/>
	<path class="st0" d="M16.8,11.9c-0.6,0.2-1.1,0.3-1.7,0.3c-0.8,0-1.6-0.3-1.3-1.2c0.6-1.8,3.9-1.7,5.3-2.6c-1.2,3.4-1.6,4.3-2,5.2
		l2.8,0c1-3,2.3-6.2,2.8-7.7c0.7-2.2-1.3-2.6-3.1-2.6c-1.5,0-3,0.2-4.6,0.6l-0.9,1.9c1.4-0.5,2.9-0.8,4.2-0.8c0.8,0,1.8,0.1,1.5,1.1
		c-0.7,2.2-7.5,0.8-8.7,4.9c-0.3,0.9-0.5,2.9,2.7,2.9c0.7,0,1.3-0.1,1.9-0.2L16.8,11.9z"/>
	<path class="st0" d="M32.9,8c0.5,0.1,1,0.1,1.5,0.1c2.7,0,5.4-1.5,6.3-4.4c0.5-1.4,0.3-3.5-2.4-3.6l-6.5,0
		C30.7,3.5,28,11.3,27,13.6l3,0c1.1-3.4,3.4-10.1,3.9-11.4c0.8-0.1,1.5-0.1,2.2-0.1c1.4,0,2,0.4,1.6,1.6c-0.5,1.5-1.7,2.3-3.6,2.3
		c-0.4,0-0.7,0-1.1-0.1L32.9,8z"/>
	<path class="st0" d="M50.1,13.5c1,0.3,2,0.4,3.1,0.4c1.7,0,4.3-0.6,4.9-2.7c0.8-2.5-2.7-3.7-2.3-5c0.3-0.9,1.2-1,2-1
		c0.8,0,1.5,0.2,2.1,0.5l0.5-2.1c-0.9-0.2-1.9-0.3-2.9-0.3c-2.7,0-4.2,1.1-4.7,2.8c-0.7,2.3,2.8,3.5,2.3,4.9c-0.3,0.8-1.2,1-1.9,1
		c-1,0-1.9-0.4-2.7-0.8L50.1,13.5z"/>
	<path class="st0" d="M72.4,5.5l0.7-2l-2.6,0l0.8-2.4l-2.8,0.6l-0.7,1.8l-1.5,0l-0.7,2l1.4,0c-0.2,0.4-1.8,4.7-2.1,5.7
		c-0.6,2,0.1,2.6,2.1,2.6c0.8,0,1.6-0.1,2.4-0.3l1-2.1c-0.5,0.1-0.9,0.2-1.7,0.2c-0.9,0-0.8-0.7-0.6-1.5c0.2-0.7,1.4-3.8,1.7-4.6
		L72.4,5.5z"/>
	<path class="st0" d="M80.5,3.5l-2.9,0c0.2,3.4,0.4,6.7,0.4,10.1l3.1,0c2.5-3.4,5.1-6.7,7.7-10l-3,0l-5.2,7.4h0V3.5z"/>
	<path class="st0" d="M92,11.9c-0.6,0.2-1.1,0.3-1.7,0.3c-0.8,0-1.6-0.3-1.3-1.2c0.6-1.8,3.9-1.7,5.3-2.6c-1.2,3.4-1.6,4.3-2,5.2
		l2.8,0c1-3,2.3-6.2,2.8-7.7c0.7-2.2-1.3-2.6-3.1-2.6c-1.5,0-3,0.2-4.6,0.6l-0.9,1.9c1.4-0.5,2.9-0.8,4.2-0.8C94.2,4.9,95.3,5,95,6
		c-0.7,2.2-7.5,0.8-8.7,4.9c-0.3,0.9-0.5,2.9,2.7,2.9c0.6,0,1.3-0.1,1.9-0.2L92,11.9z"/>
	<path class="st0" d="M10.4,11.4c-1.3,0.1-2.6,0.1-3.9,0.1l-2.5,0C4.9,8.8,7.7,1.2,8.1,0.1L4.9,0C3.4,4.6,1.9,9,0,13.5l9.5,0
		L10.4,11.4z"/>
	<polygon class="st0" points="65.9,1.9 66.5,0 63.6,0 63,1.9 	"/>
	<path class="st0" d="M62.3,3.5c-1.1,3.4-2.2,6.7-3.6,10.1l3,0c1.3-4.1,2.3-7.1,3.5-10.1L62.3,3.5z"/>
	<polygon class="st0" points="77.7,1.9 78.4,0 75.4,0 74.8,1.9 	"/>
	<path class="st0" d="M74.2,3.5c-1.1,3.4-2.2,6.7-3.6,10.1l3,0c1.3-4.1,2.3-7.1,3.5-10.1L74.2,3.5z"/>
	<path class="st0" d="M78.4,31.1c-35.5,2.8-66.3-2.6-78.2-12.4c0,0.1,0.1,0.2,0.1,0.2c16.8,13.5,52.3,21.4,93.3,19.3l1.9-9.1
		C90,30,84.3,30.6,78.4,31.1"/>
	<path class="st0" d="M60.9,18l-0.3,1.1c-0.4-0.2-0.8-0.3-1.3-0.3c-0.6,0-1.2,0.3-1.3,0.7c-0.4,1,1.9,1.7,1.3,3.2
		c-0.3,0.7-1.2,1.8-3,1.8c-0.6,0-1.2-0.1-1.7-0.3l0.3-1.2c0.5,0.2,1,0.4,1.6,0.4c0.5,0,1.1-0.2,1.3-0.7c0.4-1-1.9-1.7-1.3-3.3
		c0.4-1.1,1.7-1.6,2.9-1.6C60,17.8,60.4,17.9,60.9,18 M75.3,24.4l0.3-0.8c-0.6,0.7-1.4,0.9-2.1,0.9c-1,0-1.6-0.4-1.2-1.5
		c0.3-0.8,0.8-1.8,1.4-3.5H75c-0.2,0.4-1,2.3-1.2,2.8c-0.2,0.7-0.1,1,0.6,1c0.7,0,1.3-0.5,1.7-1.1c0.4-0.6,1-2.2,1.2-2.7h1.4
		c-0.7,1.6-1.4,3.2-2,4.8H75.3z M81.2,19.6l-0.3,0.6c0.5-0.5,1-0.8,1.6-0.8c0.2,0,0.3,0,0.4,0l-0.4,1.1c-0.2-0.1-0.3-0.1-0.5-0.1
		c-0.7,0-1.3,0.5-1.7,1.1c-0.3,0.5-0.7,1.6-0.9,2.1l-0.2,0.6h-1.4c0.6-1.4,1.2-2.7,2-4.8H81.2z M87.5,24.3l0.3-1
		c0.4,0.2,0.8,0.4,1.3,0.4c0.3,0,0.8-0.1,0.9-0.5c0.3-0.7-1.4-1.2-1-2.3c0.3-0.8,1-1.3,2.3-1.3c0.5,0,0.9,0.1,1.4,0.2l-0.3,1
		c-0.3-0.1-0.6-0.3-1-0.3c-0.4,0-0.8,0.1-1,0.5c-0.2,0.6,1.4,1.2,1,2.4c-0.4,1-1.6,1.3-2.4,1.3C88.5,24.6,88,24.5,87.5,24.3
		 M70.6,20.5c-0.2-0.1-0.5-0.1-0.7-0.1c-1.7,0-2.3,1.3-2.5,1.8c-0.3,0.8-0.1,1.3,0.7,1.3c0.7,0,1.4-0.6,1.8-1.3
		C70.2,21.7,70.4,21.1,70.6,20.5 M65,26.5l0.3-1.1c0.5,0.2,1.1,0.4,1.8,0.4c1.5,0,1.8-1.1,2.2-2.1c-0.6,0.6-1.3,0.8-2,0.8
		c-1.3,0-1.8-0.8-1.3-2.1c0.3-0.9,1.5-2.9,4.3-2.9c0.7,0,1.4,0.1,2,0.2c-0.5,1-1.3,2.8-2.1,5c-0.6,1.5-1.7,2-3.1,2
		C66.3,26.7,65.6,26.6,65,26.5 M62.2,21.4h2.2c0.3-0.8,0.2-1.1-0.6-1.1C63.1,20.3,62.5,20.8,62.2,21.4 M65.4,22.1h-3.5l-0.1,0.2
		c-0.3,0.9,0.1,1.4,1,1.4c0.6,0,1.2-0.1,1.7-0.3l-0.6,1c-0.6,0.1-1.1,0.2-1.7,0.2c-2.5,0-2.1-1.7-1.8-2.4c0.3-0.9,1.3-2.7,3.7-2.7
		c1.3,0,2,0.7,1.5,2C65.6,21.7,65.5,21.9,65.4,22.1 M85.6,20.4c-1,0-1.7,0.8-2,1.7c-0.3,0.8-0.1,1.4,0.7,1.4c1,0,1.7-0.8,2-1.7
		C86.6,21.1,86.4,20.4,85.6,20.4 M85.9,19.5c1.5,0,2.3,0.9,1.7,2.4c-0.3,0.9-1.5,2.6-3.7,2.6c-2,0-2.1-1.4-1.7-2.4
		C82.8,20.5,84.3,19.5,85.9,19.5"/>
</g>
</svg>
