<?xml version="1.0" encoding="utf-8"?>
<!-- Generator: Adobe Illustrator 21.1.0, SVG Export Plug-In . SVG Version: 6.00 Build 0)  -->
<svg version="1.1" id="Layer_1" xmlns="http://www.w3.org/2000/svg" xmlns:xlink="http://www.w3.org/1999/xlink" x="0px" y="0px"
	 viewBox="0 0 30 30" style="enable-background:new 0 0 30 30;" xml:space="preserve">
<style type="text/css">
	.st0{fill:#FFFFFF;}
</style>
<title>telefono_red</title>
<path class="st0" d="M6,1.5c0.5,0,0.9,0.3,1.2,0.6l4.1,4.1C11.7,6.6,11.9,7,12,7.5c0,0.2-0.2,0.6-1,1.4l-0.1,0.1l0,0l-2.2,2.5
	C8.1,12,8,12.9,8.5,13.6l0.1,0.1l0.1,0.1l7.6,7.6l0.1,0.1l0.1,0.1c0.3,0.2,0.6,0.3,1,0.3c0.5,0,1-0.3,1.4-0.6l0,0l2.5-2.5
	c0.3-0.4,0.8-0.7,1.3-0.7c0.5,0,0.9,0.3,1.2,0.6l4.1,4.1c0.4,0.3,0.6,0.8,0.6,1.2c0,0.5-0.3,0.9-0.6,1.2l-3,2.6
	c-0.7,0.5-1.5,0.7-2.4,0.7c-3.8,0-9.1-2.9-13.6-7.4S1.5,11.3,1.5,7.5C1.4,6.6,1.7,5.8,2.2,5.1l2.6-3C5.1,1.8,5.5,1.5,6,1.5L6,1.5
	 M6,0L6,0C5.1,0,4.3,0.4,3.7,1.1L1,4.1c-0.7,1-1.1,2.2-1,3.4c0,4,2.7,9.6,7.8,14.7S18.5,30,22.5,30c1.2,0.1,2.4-0.3,3.4-1l3-2.6
	c0.7-0.6,1.1-1.5,1.1-2.4c0-0.9-0.4-1.7-1.1-2.3l-4.1-4.1c-0.6-0.6-1.4-1-2.3-1.1c-0.9,0-1.7,0.4-2.3,1.1l-2.5,2.5
	c-0.2,0.2-0.3,0.3-0.4,0.3h-0.1l-7.6-7.6c-0.1-0.1,0.1-0.3,0.1-0.4L12,10c0.8-0.6,1.3-1.5,1.5-2.5c0-0.9-0.4-1.7-1.1-2.3L8.3,1.1
	C7.7,0.4,6.9,0,6,0z"/>
<path class="st0" d="M23.7,14.4h-0.2c-0.4-0.1-0.7-0.5-0.6-0.9c0.7-2.9-1.1-5.8-4-6.4c-0.8-0.2-1.6-0.2-2.4,0
	c-0.4,0.1-0.8-0.1-0.9-0.5c-0.1-0.4,0.1-0.8,0.5-0.9c0,0,0,0,0.1,0c3.7-0.9,7.4,1.4,8.2,5.1c0.2,1,0.2,2.1,0,3.1
	C24.3,14.2,24,14.4,23.7,14.4z"/>
<path class="st0" d="M20.2,12.9c-0.4,0-0.7-0.3-0.8-0.7c-0.1-0.9-0.8-1.5-1.6-1.6c-0.4-0.1-0.7-0.5-0.6-0.9c0.1-0.4,0.4-0.6,0.7-0.6
	c1.6,0.1,2.9,1.4,3,3C21,12.5,20.7,12.9,20.2,12.9L20.2,12.9z"/>
</svg>
