<svg xmlns="http://www.w3.org/2000/svg" viewBox="0 0 28.34 24.23"><defs><style>.cls-1{fill:#fff;}</style></defs><title>Twitter</title><g id="Capa_2" data-name="Capa 2"><g id="Layer_1" data-name="Layer 1"><path class="cls-1" d="M25.44,6v.79c0,8.1-5.85,17.44-16.54,17.44A15.86,15.86,0,0,1,0,21.52a10.81,10.81,0,0,0,1.39.09A11.27,11.27,0,0,0,8.61,19a5.87,5.87,0,0,1-5.43-4.26,5.45,5.45,0,0,0,2.63-.1,6.06,6.06,0,0,1-4.67-6V8.55a5.54,5.54,0,0,0,2.63.77A6.24,6.24,0,0,1,1.19,4.2,6.35,6.35,0,0,1,2,1.1,16.25,16.25,0,0,0,14,7.5a6.59,6.59,0,0,1-.15-1.4A6,6,0,0,1,19.62,0a5.69,5.69,0,0,1,4.24,1.94A11.19,11.19,0,0,0,27.55.45,6.11,6.11,0,0,1,25,3.84a11.11,11.11,0,0,0,3.34-1A12,12,0,0,1,25.44,6Z"/></g></g></svg>